<svg xmlns="http://www.w3.org/2000/svg" viewBox="0 0 410 404"><path fill="#41D1FF" d="m255.207 81.397 68.932-39.74-2.316 118.557-118.23-68.817 51.614-30.536Z"/><path fill="#BD34FE" d="m401.898.5-118.468 68.888 89.302 51.995-5.22 89.883L409.845 105.8 401.898.5Z"/><path fill="#FFEA83" d="m180.384 203.685 118.493-68.9 91.86 53.253-210.353 121.894v-106.247Z"/><path fill="#FFC24C" d="m.202 262.02 118.502-68.904 91.86 53.254-210.362 121.9v-106.25Z"/><path fill="#FFA800" d="m180.566 203.685 118.493-68.9-3.397 175.144-115.096 66.66V203.685Z"/><path fill="#F24E1E" d="M.202 262.02 118.704 193.1l-.3 175.134L3.303 337.777.202 262.02Z"/><path fill="#A259FF" d="m180.566 203.685-118.502-68.9 91.909-53.283 118.482 68.928-91.889 53.255Z"/><path fill="#13B5EC" d="M0 262.02 118.484 193.1l-89.521-52.936L0 262.02Z"/><path fill="#00A7FA" d="m91.864 140.164 88.702-51.914-51.614 30.536-37.088 21.378Z"/></svg>